<svg width="900" height="230" viewBox="0 0 900 230" xmlns="http://www.w3.org/2000/svg">
  <defs>
    <clipPath id="plateClip"><rect x="0" y="0" width="900" height="230" rx="26"/></clipPath>
    <linearGradient id="plateGrad" x1="0" y1="0" x2="1" y2="1">
      <stop offset="0%" stop-color="#04060d"/>
      <stop offset="55%" stop-color="#0a1120"/>
      <stop offset="100%" stop-color="#04060d"/>
    </linearGradient>
    <linearGradient id="nameGrad" x1="0" y1="0" x2="1" y2="0">
      <stop offset="0%" stop-color="#7DD3FC"/>
      <stop offset="50%" stop-color="#E2E8F0"/>
      <stop offset="100%" stop-color="#38BDF8"/>
    </linearGradient>
    <linearGradient id="borderGrad" x1="0" y1="0" x2="1" y2="1">
      <stop offset="0%" stop-color="#0EA5E9"/>
      <stop offset="50%" stop-color="#22c55e"/>
      <stop offset="100%" stop-color="#7DD3FC"/>
    </linearGradient>
    <filter id="glow" x="-50%" y="-50%" width="200%" height="200%">
      <feGaussianBlur stdDeviation="6" result="blur"/>
      <feMerge>
        <feMergeNode in="blur"/>
        <feMergeNode in="SourceGraphic"/>
      </feMerge>
    </filter>
  </defs>

  <rect x="1.5" y="1.5" width="897" height="227" rx="26" fill="url(#plateGrad)"
        stroke="url(#borderGrad)" stroke-width="2" opacity="0.95"/>

  <g clip-path="url(#plateClip)">
    
    <text font-family="JetBrains Mono, monospace" font-size="15" fill="#22c55e" opacity="0.5">
      <tspan x="30" dy="18">N</tspan><tspan x="30" dy="18">$</tspan><tspan x="30" dy="18">N</tspan><tspan x="30" dy="18">N</tspan><tspan x="30" dy="18">$</tspan><tspan x="30" dy="18">#</tspan><tspan x="30" dy="18">S</tspan><tspan x="30" dy="18">V</tspan><tspan x="30" dy="18">$</tspan><tspan x="30" dy="18">N</tspan>
      <animateTransform attributeName="transform" type="translate"
        values="0,-220; 0,280" dur="5.02s" begin="-1.24s" repeatCount="indefinite"/>
    </text>
    <text font-family="JetBrains Mono, monospace" font-size="15" fill="#22c55e" opacity="0.5">
      <tspan x="80" dy="18">1</tspan><tspan x="80" dy="18">N</tspan><tspan x="80" dy="18">A</tspan><tspan x="80" dy="18">V</tspan><tspan x="80" dy="18">1</tspan><tspan x="80" dy="18">$</tspan><tspan x="80" dy="18">&</tspan><tspan x="80" dy="18">%</tspan><tspan x="80" dy="18">0</tspan><tspan x="80" dy="18">#</tspan>
      <animateTransform attributeName="transform" type="translate"
        values="0,-220; 0,280" dur="6.14s" begin="-0.21s" repeatCount="indefinite"/>
    </text>
    <text font-family="JetBrains Mono, monospace" font-size="15" fill="#22c55e" opacity="0.5">
      <tspan x="130" dy="18">%</tspan><tspan x="130" dy="18">&</tspan><tspan x="130" dy="18">#</tspan><tspan x="130" dy="18">%</tspan><tspan x="130" dy="18">V</tspan><tspan x="130" dy="18">#</tspan><tspan x="130" dy="18">0</tspan><tspan x="130" dy="18">$</tspan><tspan x="130" dy="18">1</tspan><tspan x="130" dy="18">0</tspan>
      <animateTransform attributeName="transform" type="translate"
        values="0,-220; 0,280" dur="3.11s" begin="-0.72s" repeatCount="indefinite"/>
    </text>
    <text font-family="JetBrains Mono, monospace" font-size="15" fill="#22c55e" opacity="0.5">
      <tspan x="180" dy="18">#</tspan><tspan x="180" dy="18">0</tspan><tspan x="180" dy="18">N</tspan><tspan x="180" dy="18">G</tspan><tspan x="180" dy="18">N</tspan><tspan x="180" dy="18">#</tspan><tspan x="180" dy="18">S</tspan><tspan x="180" dy="18">$</tspan><tspan x="180" dy="18">S</tspan><tspan x="180" dy="18">%</tspan>
      <animateTransform attributeName="transform" type="translate"
        values="0,-220; 0,280" dur="3.94s" begin="-5.97s" repeatCount="indefinite"/>
    </text>
    <text font-family="JetBrains Mono, monospace" font-size="15" fill="#22c55e" opacity="0.5">
      <tspan x="230" dy="18">1</tspan><tspan x="230" dy="18">N</tspan><tspan x="230" dy="18">%</tspan><tspan x="230" dy="18">A</tspan><tspan x="230" dy="18">R</tspan><tspan x="230" dy="18">$</tspan><tspan x="230" dy="18">1</tspan><tspan x="230" dy="18">&</tspan><tspan x="230" dy="18">A</tspan><tspan x="230" dy="18">G</tspan>
      <animateTransform attributeName="transform" type="translate"
        values="0,-220; 0,280" dur="5.43s" begin="-2.92s" repeatCount="indefinite"/>
    </text>
    <text font-family="JetBrains Mono, monospace" font-size="15" fill="#22c55e" opacity="0.5">
      <tspan x="280" dy="18">0</tspan><tspan x="280" dy="18">1</tspan><tspan x="280" dy="18">#</tspan><tspan x="280" dy="18">1</tspan><tspan x="280" dy="18">R</tspan><tspan x="280" dy="18">1</tspan><tspan x="280" dy="18">A</tspan><tspan x="280" dy="18">R</tspan><tspan x="280" dy="18">1</tspan><tspan x="280" dy="18">0</tspan>
      <animateTransform attributeName="transform" type="translate"
        values="0,-220; 0,280" dur="5.71s" begin="-6.0s" repeatCount="indefinite"/>
    </text>
    <text font-family="JetBrains Mono, monospace" font-size="15" fill="#22c55e" opacity="0.5">
      <tspan x="330" dy="18">S</tspan><tspan x="330" dy="18">0</tspan><tspan x="330" dy="18">N</tspan><tspan x="330" dy="18">R</tspan><tspan x="330" dy="18">&</tspan><tspan x="330" dy="18">R</tspan><tspan x="330" dy="18">R</tspan><tspan x="330" dy="18">1</tspan><tspan x="330" dy="18">#</tspan><tspan x="330" dy="18">%</tspan>
      <animateTransform attributeName="transform" type="translate"
        values="0,-220; 0,280" dur="3.64s" begin="-1.95s" repeatCount="indefinite"/>
    </text>
    <text font-family="JetBrains Mono, monospace" font-size="15" fill="#22c55e" opacity="0.5">
      <tspan x="380" dy="18">G</tspan><tspan x="380" dy="18">1</tspan><tspan x="380" dy="18">A</tspan><tspan x="380" dy="18">G</tspan><tspan x="380" dy="18">0</tspan><tspan x="380" dy="18">R</tspan><tspan x="380" dy="18">1</tspan><tspan x="380" dy="18">V</tspan><tspan x="380" dy="18">S</tspan><tspan x="380" dy="18">&</tspan>
      <animateTransform attributeName="transform" type="translate"
        values="0,-220; 0,280" dur="3.32s" begin="-5.64s" repeatCount="indefinite"/>
    </text>
    <text font-family="JetBrains Mono, monospace" font-size="15" fill="#22c55e" opacity="0.5">
      <tspan x="430" dy="18">N</tspan><tspan x="430" dy="18">V</tspan><tspan x="430" dy="18">%</tspan><tspan x="430" dy="18">$</tspan><tspan x="430" dy="18">S</tspan><tspan x="430" dy="18">N</tspan><tspan x="430" dy="18">$</tspan><tspan x="430" dy="18">S</tspan><tspan x="430" dy="18">&</tspan><tspan x="430" dy="18">V</tspan>
      <animateTransform attributeName="transform" type="translate"
        values="0,-220; 0,280" dur="4.34s" begin="-3.7s" repeatCount="indefinite"/>
    </text>
    <text font-family="JetBrains Mono, monospace" font-size="15" fill="#22c55e" opacity="0.5">
      <tspan x="480" dy="18">R</tspan><tspan x="480" dy="18">R</tspan><tspan x="480" dy="18">S</tspan><tspan x="480" dy="18">0</tspan><tspan x="480" dy="18">A</tspan><tspan x="480" dy="18">#</tspan><tspan x="480" dy="18">A</tspan><tspan x="480" dy="18">0</tspan><tspan x="480" dy="18">S</tspan><tspan x="480" dy="18">V</tspan>
      <animateTransform attributeName="transform" type="translate"
        values="0,-220; 0,280" dur="4.26s" begin="-0.87s" repeatCount="indefinite"/>
    </text>
    <text font-family="JetBrains Mono, monospace" font-size="15" fill="#22c55e" opacity="0.5">
      <tspan x="530" dy="18">%</tspan><tspan x="530" dy="18">#</tspan><tspan x="530" dy="18">1</tspan><tspan x="530" dy="18">0</tspan><tspan x="530" dy="18">V</tspan><tspan x="530" dy="18">S</tspan><tspan x="530" dy="18">N</tspan><tspan x="530" dy="18">A</tspan><tspan x="530" dy="18">0</tspan><tspan x="530" dy="18">#</tspan>
      <animateTransform attributeName="transform" type="translate"
        values="0,-220; 0,280" dur="4.05s" begin="-4.22s" repeatCount="indefinite"/>
    </text>
    <text font-family="JetBrains Mono, monospace" font-size="15" fill="#22c55e" opacity="0.5">
      <tspan x="580" dy="18">1</tspan><tspan x="580" dy="18">1</tspan><tspan x="580" dy="18">1</tspan><tspan x="580" dy="18">S</tspan><tspan x="580" dy="18">#</tspan><tspan x="580" dy="18">%</tspan><tspan x="580" dy="18">S</tspan><tspan x="580" dy="18">0</tspan><tspan x="580" dy="18">#</tspan><tspan x="580" dy="18">G</tspan>
      <animateTransform attributeName="transform" type="translate"
        values="0,-220; 0,280" dur="4.19s" begin="-3.28s" repeatCount="indefinite"/>
    </text>
    <text font-family="JetBrains Mono, monospace" font-size="15" fill="#22c55e" opacity="0.5">
      <tspan x="630" dy="18">#</tspan><tspan x="630" dy="18">N</tspan><tspan x="630" dy="18">#</tspan><tspan x="630" dy="18">V</tspan><tspan x="630" dy="18">R</tspan><tspan x="630" dy="18">V</tspan><tspan x="630" dy="18">%</tspan><tspan x="630" dy="18">V</tspan><tspan x="630" dy="18">A</tspan><tspan x="630" dy="18">S</tspan>
      <animateTransform attributeName="transform" type="translate"
        values="0,-220; 0,280" dur="5.62s" begin="-4.5s" repeatCount="indefinite"/>
    </text>
    <text font-family="JetBrains Mono, monospace" font-size="15" fill="#22c55e" opacity="0.5">
      <tspan x="680" dy="18">S</tspan><tspan x="680" dy="18">V</tspan><tspan x="680" dy="18">&</tspan><tspan x="680" dy="18">%</tspan><tspan x="680" dy="18">$</tspan><tspan x="680" dy="18">S</tspan><tspan x="680" dy="18">%</tspan><tspan x="680" dy="18">R</tspan><tspan x="680" dy="18">N</tspan><tspan x="680" dy="18">#</tspan>
      <animateTransform attributeName="transform" type="translate"
        values="0,-220; 0,280" dur="3.25s" begin="-5.72s" repeatCount="indefinite"/>
    </text>
    <text font-family="JetBrains Mono, monospace" font-size="15" fill="#22c55e" opacity="0.5">
      <tspan x="730" dy="18">1</tspan><tspan x="730" dy="18">0</tspan><tspan x="730" dy="18">$</tspan><tspan x="730" dy="18">A</tspan><tspan x="730" dy="18">S</tspan><tspan x="730" dy="18">&</tspan><tspan x="730" dy="18">&</tspan><tspan x="730" dy="18">R</tspan><tspan x="730" dy="18">A</tspan><tspan x="730" dy="18">R</tspan>
      <animateTransform attributeName="transform" type="translate"
        values="0,-220; 0,280" dur="5.64s" begin="-2.42s" repeatCount="indefinite"/>
    </text>
    <text font-family="JetBrains Mono, monospace" font-size="15" fill="#22c55e" opacity="0.5">
      <tspan x="780" dy="18">A</tspan><tspan x="780" dy="18">$</tspan><tspan x="780" dy="18">V</tspan><tspan x="780" dy="18">&</tspan><tspan x="780" dy="18">1</tspan><tspan x="780" dy="18">V</tspan><tspan x="780" dy="18">S</tspan><tspan x="780" dy="18">N</tspan><tspan x="780" dy="18">$</tspan><tspan x="780" dy="18">%</tspan>
      <animateTransform attributeName="transform" type="translate"
        values="0,-220; 0,280" dur="5.73s" begin="-2.31s" repeatCount="indefinite"/>
    </text>
    <text font-family="JetBrains Mono, monospace" font-size="15" fill="#22c55e" opacity="0.5">
      <tspan x="830" dy="18">A</tspan><tspan x="830" dy="18">S</tspan><tspan x="830" dy="18">S</tspan><tspan x="830" dy="18">&</tspan><tspan x="830" dy="18">0</tspan><tspan x="830" dy="18">1</tspan><tspan x="830" dy="18">A</tspan><tspan x="830" dy="18">R</tspan><tspan x="830" dy="18">N</tspan><tspan x="830" dy="18">S</tspan>
      <animateTransform attributeName="transform" type="translate"
        values="0,-220; 0,280" dur="3.19s" begin="-4.94s" repeatCount="indefinite"/>
    </text>
    <text font-family="JetBrains Mono, monospace" font-size="15" fill="#22c55e" opacity="0.5">
      <tspan x="880" dy="18">G</tspan><tspan x="880" dy="18">$</tspan><tspan x="880" dy="18">#</tspan><tspan x="880" dy="18">V</tspan><tspan x="880" dy="18">1</tspan><tspan x="880" dy="18">G</tspan><tspan x="880" dy="18">V</tspan><tspan x="880" dy="18">N</tspan><tspan x="880" dy="18">G</tspan><tspan x="880" dy="18">%</tspan>
      <animateTransform attributeName="transform" type="translate"
        values="0,-220; 0,280" dur="5.35s" begin="-2.87s" repeatCount="indefinite"/>
    </text>
    <rect x="0" y="0" width="900" height="230" fill="url(#plateGrad)" opacity="0.32"/>
    <rect x="0" y="0" width="900" height="1" fill="#7DD3FC" opacity="0.05"/><rect x="0" y="4" width="900" height="1" fill="#7DD3FC" opacity="0.05"/><rect x="0" y="8" width="900" height="1" fill="#7DD3FC" opacity="0.05"/><rect x="0" y="12" width="900" height="1" fill="#7DD3FC" opacity="0.05"/><rect x="0" y="16" width="900" height="1" fill="#7DD3FC" opacity="0.05"/><rect x="0" y="20" width="900" height="1" fill="#7DD3FC" opacity="0.05"/><rect x="0" y="24" width="900" height="1" fill="#7DD3FC" opacity="0.05"/><rect x="0" y="28" width="900" height="1" fill="#7DD3FC" opacity="0.05"/><rect x="0" y="32" width="900" height="1" fill="#7DD3FC" opacity="0.05"/><rect x="0" y="36" width="900" height="1" fill="#7DD3FC" opacity="0.05"/><rect x="0" y="40" width="900" height="1" fill="#7DD3FC" opacity="0.05"/><rect x="0" y="44" width="900" height="1" fill="#7DD3FC" opacity="0.05"/><rect x="0" y="48" width="900" height="1" fill="#7DD3FC" opacity="0.05"/><rect x="0" y="52" width="900" height="1" fill="#7DD3FC" opacity="0.05"/><rect x="0" y="56" width="900" height="1" fill="#7DD3FC" opacity="0.05"/><rect x="0" y="60" width="900" height="1" fill="#7DD3FC" opacity="0.05"/><rect x="0" y="64" width="900" height="1" fill="#7DD3FC" opacity="0.05"/><rect x="0" y="68" width="900" height="1" fill="#7DD3FC" opacity="0.05"/><rect x="0" y="72" width="900" height="1" fill="#7DD3FC" opacity="0.05"/><rect x="0" y="76" width="900" height="1" fill="#7DD3FC" opacity="0.05"/><rect x="0" y="80" width="900" height="1" fill="#7DD3FC" opacity="0.05"/><rect x="0" y="84" width="900" height="1" fill="#7DD3FC" opacity="0.05"/><rect x="0" y="88" width="900" height="1" fill="#7DD3FC" opacity="0.05"/><rect x="0" y="92" width="900" height="1" fill="#7DD3FC" opacity="0.05"/><rect x="0" y="96" width="900" height="1" fill="#7DD3FC" opacity="0.05"/><rect x="0" y="100" width="900" height="1" fill="#7DD3FC" opacity="0.05"/><rect x="0" y="104" width="900" height="1" fill="#7DD3FC" opacity="0.05"/><rect x="0" y="108" width="900" height="1" fill="#7DD3FC" opacity="0.05"/><rect x="0" y="112" width="900" height="1" fill="#7DD3FC" opacity="0.05"/><rect x="0" y="116" width="900" height="1" fill="#7DD3FC" opacity="0.05"/><rect x="0" y="120" width="900" height="1" fill="#7DD3FC" opacity="0.05"/><rect x="0" y="124" width="900" height="1" fill="#7DD3FC" opacity="0.05"/><rect x="0" y="128" width="900" height="1" fill="#7DD3FC" opacity="0.05"/><rect x="0" y="132" width="900" height="1" fill="#7DD3FC" opacity="0.05"/><rect x="0" y="136" width="900" height="1" fill="#7DD3FC" opacity="0.05"/><rect x="0" y="140" width="900" height="1" fill="#7DD3FC" opacity="0.05"/><rect x="0" y="144" width="900" height="1" fill="#7DD3FC" opacity="0.05"/><rect x="0" y="148" width="900" height="1" fill="#7DD3FC" opacity="0.05"/><rect x="0" y="152" width="900" height="1" fill="#7DD3FC" opacity="0.05"/><rect x="0" y="156" width="900" height="1" fill="#7DD3FC" opacity="0.05"/><rect x="0" y="160" width="900" height="1" fill="#7DD3FC" opacity="0.05"/><rect x="0" y="164" width="900" height="1" fill="#7DD3FC" opacity="0.05"/><rect x="0" y="168" width="900" height="1" fill="#7DD3FC" opacity="0.05"/><rect x="0" y="172" width="900" height="1" fill="#7DD3FC" opacity="0.05"/><rect x="0" y="176" width="900" height="1" fill="#7DD3FC" opacity="0.05"/><rect x="0" y="180" width="900" height="1" fill="#7DD3FC" opacity="0.05"/><rect x="0" y="184" width="900" height="1" fill="#7DD3FC" opacity="0.05"/><rect x="0" y="188" width="900" height="1" fill="#7DD3FC" opacity="0.05"/><rect x="0" y="192" width="900" height="1" fill="#7DD3FC" opacity="0.05"/><rect x="0" y="196" width="900" height="1" fill="#7DD3FC" opacity="0.05"/><rect x="0" y="200" width="900" height="1" fill="#7DD3FC" opacity="0.05"/><rect x="0" y="204" width="900" height="1" fill="#7DD3FC" opacity="0.05"/><rect x="0" y="208" width="900" height="1" fill="#7DD3FC" opacity="0.05"/><rect x="0" y="212" width="900" height="1" fill="#7DD3FC" opacity="0.05"/><rect x="0" y="216" width="900" height="1" fill="#7DD3FC" opacity="0.05"/><rect x="0" y="220" width="900" height="1" fill="#7DD3FC" opacity="0.05"/><rect x="0" y="224" width="900" height="1" fill="#7DD3FC" opacity="0.05"/><rect x="0" y="228" width="900" height="1" fill="#7DD3FC" opacity="0.05"/>
  </g>

  <text x="450.0" y="80" text-anchor="middle" font-family="Fira Code, monospace" font-size="14"
        font-weight="700" fill="#39FF14" letter-spacing="3">
    ACCESS_GRANTED :: WELCOME
    <animate attributeName="opacity" values="1;0.4;1" dur="2.2s" repeatCount="indefinite"/>
  </text>

  <text x="450.0" y="150" text-anchor="middle" font-family="JetBrains Mono, monospace" font-size="50"
        font-weight="800" fill="url(#nameGrad)" letter-spacing="6" filter="url(#glow)">
    VIDYA SAGAR SINGH
  </text>

  <text x="450.0" y="188" text-anchor="middle" font-family="Fira Code, monospace" font-size="17"
        fill="#7DD3FC" letter-spacing="1">
    Full Stack Developer :: Cloud &amp; AWS Enthusiast
  </text>
</svg>